<?xml version="1.0" standalone="no"?>
<!DOCTYPE svg PUBLIC "-//W3C//DTD SVG 20010904//EN"
 "http://www.w3.org/TR/2001/REC-SVG-20010904/DTD/svg10.dtd">
<svg version="1.0" xmlns="http://www.w3.org/2000/svg"
 width="300.000000pt" height="180.000000pt" viewBox="0 0 300.000000 180.000000"
 preserveAspectRatio="xMidYMid meet">
<metadata>
Created by potrace 1.13, written by Peter Selinger 2001-2015
</metadata>
<g transform="translate(0.000000,180.000000) scale(0.100000,-0.100000)"
fill="#000000" stroke="none">
<path d="M1691 1582 c-7 -13 -13 -51 -14 -85 l-2 -62 63 -3 c34 -2 62 -7 62
-13 0 -6 -31 -9 -77 -7 l-78 3 0 60 0 60 -285 0 -285 0 -57 -84 c-44 -65 -55
-87 -47 -98 17 -19 30 -16 61 14 l28 27 0 -172 c0 -159 1 -172 19 -182 27 -14
164 -13 179 2 7 7 12 40 12 80 0 56 3 69 19 78 12 6 96 10 205 10 221 0 218 1
215 -97 -2 -47 2 -67 12 -74 16 -10 149 -12 173 -3 13 5 16 22 16 80 l0 74
-48 0 c-26 0 -53 5 -60 12 -15 15 -16 138 -2 138 6 0 10 -23 9 -56 -2 -39 2
-59 12 -65 21 -13 173 -11 187 3 8 8 12 57 12 155 0 130 -2 143 -19 153 -11 5
-78 10 -149 10 l-129 0 -10 33 -9 32 -13 -23z"/>
<path d="M288 784 c-5 -4 -8 -103 -8 -221 l0 -213 55 0 55 0 0 85 c0 78 2 85
20 85 14 0 29 -18 54 -67 50 -99 57 -104 156 -101 l83 3 12 35 12 35 75 3 75
3 12 -41 12 -40 99 0 100 0 0 140 0 140 51 -97 c101 -192 93 -183 157 -183
l57 0 -2 217 -3 218 -41 0 -41 0 1 -144 2 -145 -74 145 -75 144 -58 0 -59 0 0
-213 c0 -116 -2 -212 -5 -212 -3 1 -37 96 -76 213 l-71 212 -54 0 -54 0 -59
-175 c-33 -96 -64 -178 -70 -182 -18 -12 -44 11 -73 65 l-29 53 31 19 c68 45
66 158 -5 199 -28 17 -57 22 -145 24 -60 2 -113 0 -117 -4z"/>
<path d="M1495 776 c-73 -32 -113 -126 -102 -243 13 -131 83 -198 202 -191 33
2 73 11 90 19 38 18 77 76 73 109 -3 22 -8 25 -50 28 -37 2 -47 0 -43 -11 10
-24 -33 -67 -66 -67 -66 0 -94 45 -94 150 0 98 31 150 91 150 24 0 64 -47 64
-76 0 -25 2 -26 38 -20 20 3 43 6 51 6 10 0 12 10 8 40 -7 54 -31 88 -72 106
-43 18 -150 18 -190 0z"/>
<path d="M1780 571 l0 -221 55 0 55 0 0 90 0 90 65 0 65 0 0 -90 0 -90 55 0
55 0 0 220 0 220 -55 0 -55 0 0 -85 0 -85 -65 0 -64 0 -3 83 -3 82 -52 3 -53
3 0 -220z"/>
<path d="M2180 788 c0 -2 -1 -101 -3 -221 l-2 -217 148 0 147 0 0 40 0 40 -95
0 -95 0 0 50 0 50 80 0 80 0 0 40 0 40 -81 0 -80 0 3 48 3 47 93 3 93 3 -3 37
-3 37 -142 3 c-79 1 -143 1 -143 0z"/>
<path d="M2490 571 l0 -221 55 0 55 0 0 85 c0 78 2 85 20 85 15 0 28 -18 54
-73 39 -82 63 -100 122 -95 37 3 39 5 42 42 2 22 -1 36 -6 32 -15 -9 -49 25
-76 75 l-24 47 25 13 c47 25 68 105 42 162 -21 46 -64 61 -191 65 l-118 4 0
-221z"/>
</g>
</svg>
